<svg width="427" height="75" viewBox="0 0 427 75" fill="none" xmlns="http://www.w3.org/2000/svg">
<path d="M10.2949 30.5488C7.83398 29.5527 5.7832 28.1465 4.14258 26.3301C2.56055 24.5137 1.27148 22.375 0.275391 19.9141C0.861328 18.332 1.79883 17.0137 3.08789 15.959C4.37695 14.8457 5.8125 13.9082 7.39453 13.1465C9.03516 12.3848 10.7637 11.7695 12.5801 11.3008C14.3965 10.832 16.1543 10.4219 17.8535 10.0703C18.2051 10.1875 18.3809 10.1875 18.3809 10.0703C18.3809 9.95312 18.5273 10.0117 18.8203 10.2461C20.9297 9.60156 23.3613 8.98633 26.1152 8.40039C28.8691 7.75586 31.7988 7.52148 34.9043 7.69727C35.3145 7.46289 35.8125 7.3457 36.3984 7.3457C36.9844 7.28711 37.5996 7.25781 38.2441 7.25781C38.8887 7.25781 39.5039 7.25781 40.0898 7.25781C40.6758 7.19922 41.1738 7.08203 41.584 6.90625C41.9355 7.31641 42.4629 7.58008 43.166 7.69727C43.8691 7.75586 44.6016 8.04883 45.3633 8.57617C45.5977 8.63477 45.5977 8.54688 45.3633 8.3125C45.1289 8.01953 45.1582 7.81445 45.4512 7.69727C46.2129 7.69727 46.8867 7.87305 47.4727 8.22461C48.0586 8.57617 48.5859 8.98633 49.0547 9.45508C49.582 9.86523 50.0508 10.2461 50.4609 10.5977C50.9297 10.9492 51.4277 11.125 51.9551 11.125C52.4824 11.7695 53.0977 12.3848 53.8008 12.9707C54.5625 13.498 55.2656 14.0547 55.9102 14.6406C56.6133 15.2266 57.1699 15.8711 57.5801 16.5742C58.0488 17.2773 58.2832 18.0684 58.2832 18.9473C58.2246 19.2988 58.3418 19.5039 58.6348 19.5625C58.9277 19.6211 59.1328 19.7969 59.25 20.0898C59.3086 22.2578 58.957 24.1328 58.1953 25.7148C57.4922 27.2969 56.584 28.7617 55.4707 30.1094C54.3574 31.3984 53.1562 32.6289 51.8672 33.8008C50.6367 34.9727 49.4941 36.2324 48.4395 37.5801C49.1426 38.459 49.9336 39.2793 50.8125 40.041C51.75 40.7441 52.6875 41.4473 53.625 42.1504C54.5625 42.8535 55.4414 43.6152 56.2617 44.4355C57.1406 45.1973 57.873 46.0762 58.459 47.0723C58.6348 47.4238 59.0156 47.6582 59.6016 47.7754C59.7773 48.4785 60.0117 49.2109 60.3047 49.9727C60.6562 50.6758 60.9785 51.3789 61.2715 52.082C61.5645 52.7266 61.7402 53.3125 61.7988 53.8398C61.8574 54.3672 61.7109 54.8066 61.3594 55.1582C61.7695 55.3926 62.0039 55.7734 62.0625 56.3008C62.1211 56.7695 62.1211 57.1504 62.0625 57.4434C60.7734 59.0254 59.8945 60.1387 59.4258 60.7832C58.957 61.4277 58.6055 61.8965 58.3711 62.1895C58.1367 62.4824 57.9023 62.7461 57.668 62.9805C57.4336 63.2148 56.9062 63.6836 56.0859 64.3867C52.9805 66.2617 49.7285 67.9609 46.3301 69.4844C42.9902 70.9492 39.5039 71.9453 35.8711 72.4727C35.5781 72.8828 35.1387 73.2051 34.5527 73.4395C34.0254 73.7324 33.4102 73.9668 32.707 74.1426C32.0039 74.3184 31.2422 74.4648 30.4219 74.582C29.6602 74.6992 28.957 74.8164 28.3125 74.9336C28.0195 74.8164 27.8438 74.6113 27.7852 74.3184C27.7852 74.084 27.6387 73.9082 27.3457 73.791C27.2871 74.4941 26.9648 74.8457 26.3789 74.8457C25.8516 74.9043 25.1777 74.7871 24.3574 74.4941C23.5371 74.2012 22.6875 73.791 21.8086 73.2637C20.9297 72.7363 20.168 72.2383 19.5234 71.7695C19.2305 72.2969 18.8496 72.8535 18.3809 73.4395C17.9707 74.0254 17.5312 74.4355 17.0625 74.6699C16.2422 74.5527 15.627 74.4648 15.2168 74.4062C14.8652 74.3477 14.5137 74.4941 14.1621 74.8457C13.6934 74.6113 13.3418 74.3477 13.1074 74.0547C12.873 73.8203 12.6387 73.5566 12.4043 73.2637C12.1699 73.0293 11.9062 72.8242 11.6133 72.6484C11.3203 72.4141 10.8809 72.209 10.2949 72.0332C10.4121 71.7402 10.3242 71.3008 10.0312 70.7148C9.73828 70.0703 9.32812 69.6895 8.80078 69.5723C9.09375 69.1035 8.97656 68.5176 8.44922 67.8145C7.92188 67.0527 7.51172 66.2031 7.21875 65.2656C7.27734 64.8555 7.30664 64.4453 7.30664 64.0352C7.36523 63.5664 7.42383 63.1562 7.48242 62.8047C7.59961 62.3945 7.74609 62.043 7.92188 61.75C8.09766 61.457 8.39062 61.252 8.80078 61.1348C8.74219 60.373 8.50781 59.6406 8.09766 58.9375C8.625 58.5273 8.97656 58.0293 9.15234 57.4434C9.32812 56.7988 9.47461 56.1543 9.5918 55.5098C9.76758 54.8652 9.97266 54.25 10.207 53.6641C10.4414 53.0195 10.8223 52.4922 11.3496 52.082C11.2324 51.9062 11.1152 51.7598 10.998 51.6426C10.8809 51.5254 10.8223 51.3203 10.8223 51.0273C11.7012 49.5625 12.3164 48.332 12.668 47.3359C13.0195 46.2812 13.2832 45.2852 13.459 44.3477C13.6934 43.3516 13.9277 42.2969 14.1621 41.1836C14.3965 40.0703 14.8652 38.6641 15.5684 36.9648C15.5098 35.9102 15.627 34.9727 15.9199 34.1523C16.2129 33.332 16.5059 32.541 16.7988 31.7793C17.1504 30.959 17.4141 30.1094 17.5898 29.2305C17.7656 28.3516 17.7363 27.3262 17.502 26.1543C16.5059 26.2715 15.7734 26.623 15.3047 27.209C14.8945 27.7949 14.6309 28.5859 14.5137 29.582C13.9863 30.0508 13.3125 30.2852 12.4922 30.2852C11.6719 30.2266 10.9395 30.3145 10.2949 30.5488ZM48.9668 47.5117C46.7402 46.2812 44.6895 45.5488 42.8145 45.3145C40.998 45.0801 39.2402 45.1094 37.541 45.4023C35.9004 45.6367 34.3184 45.9883 32.7949 46.457C31.2715 46.9258 29.748 47.2773 28.2246 47.5117C27.4629 49.5039 26.6719 51.7012 25.8516 54.1035C25.0312 56.5059 24.2402 58.8496 23.4785 61.1348C25.5879 60.8418 27.5215 60.4023 29.2793 59.8164C31.0371 59.2305 32.7363 58.5859 34.377 57.8828C36.0176 57.1211 37.6289 56.3887 39.2109 55.6855C40.793 54.9238 42.4336 54.2207 44.1328 53.5762C44.3086 52.873 44.6895 52.3164 45.2754 51.9062C45.8613 51.4961 46.4473 51.1152 47.0332 50.7637C47.6191 50.3535 48.1172 49.9141 48.5273 49.4453C48.9375 48.9766 49.084 48.332 48.9668 47.5117ZM42.8145 20.002C39.1816 19.8848 35.6074 20.207 32.0918 20.9688C28.5762 21.7305 25.6172 22.8438 23.2148 24.3086C24.3867 25.3047 25.5879 26.1836 26.8184 26.9453C28.1074 27.707 29.0742 28.7324 29.7188 30.0215C32.5312 28.9082 34.9922 27.502 37.1016 25.8027C39.2109 24.0449 41.1152 22.1113 42.8145 20.002ZM69.709 70.0117C69.2402 69.543 68.8887 68.9863 68.6543 68.3418C68.4785 67.6973 68.0098 67.1699 67.248 66.7598C67.1309 65.8809 66.9551 64.8848 66.7207 63.7715C66.5449 62.5996 66.3398 61.4277 66.1055 60.2559C65.9297 59.0254 65.7832 57.8242 65.666 56.6523C65.6074 55.4219 65.666 54.3086 65.8418 53.3125C65.959 52.7852 66.1348 52.2871 66.3691 51.8184C66.6621 51.3496 66.9258 50.9102 67.1602 50.5C67.4531 50.0312 67.6582 49.5625 67.7754 49.0938C67.9512 48.625 67.9805 48.1562 67.8633 47.6875C68.2148 47.6289 68.4199 47.4531 68.4785 47.1602C68.5957 46.8086 68.8887 46.6914 69.3574 46.8086C69.7676 45.5195 70.207 44.3184 70.6758 43.2051C71.1445 42.0918 71.6426 41.0078 72.1699 39.9531C72.6973 38.8984 73.2246 37.8438 73.752 36.7891C74.3379 35.6758 74.8652 34.4453 75.334 33.0977C74.3379 32.1602 73.6055 31.1641 73.1367 30.1094C72.7266 28.9961 72.4043 27.8828 72.1699 26.7695C71.9355 25.6562 71.7598 24.543 71.6426 23.4297C71.5254 22.2578 71.291 21.0859 70.9395 19.9141C71.6426 18.8594 72.4922 18.0098 73.4883 17.3652C74.4844 16.6621 75.5684 16.1055 76.7402 15.6953C77.9707 15.2266 79.2891 14.875 80.6953 14.6406C82.1016 14.3477 83.5957 14.0254 85.1777 13.6738C87.9902 12.7949 90.5098 12.1211 92.7363 11.6523C94.9629 11.125 97.1309 10.7148 99.2402 10.4219C101.35 10.0703 103.547 9.77734 105.832 9.54297C108.117 9.25 110.754 8.83984 113.742 8.3125C113.801 8.48828 113.889 8.57617 114.006 8.57617C114.182 8.57617 114.387 8.57617 114.621 8.57617C114.797 8.98633 115.119 9.19141 115.588 9.19141C115.588 9.01562 115.559 8.86914 115.5 8.75195C115.5 8.57617 115.5 8.42969 115.5 8.3125C115.617 8.3125 115.764 8.3418 115.939 8.40039C116.174 8.45898 116.35 8.51758 116.467 8.57617C116.643 8.63477 116.789 8.63477 116.906 8.57617C117.023 8.45898 117.053 8.25391 116.994 7.96094C117.697 9.19141 118.605 10.2168 119.719 11.0371C120.832 11.7988 122.062 12.4727 123.41 13.0586C123.469 13.5859 123.469 13.9668 123.41 14.2012C123.41 14.4355 123.381 14.6699 123.322 14.9043C123.264 15.0801 123.234 15.3145 123.234 15.6074C123.234 15.8418 123.293 16.1934 123.41 16.6621C122.473 18.2441 121.389 19.4746 120.158 20.3535C118.986 21.2324 117.727 21.9062 116.379 22.375C115.031 22.8438 113.596 23.1953 112.072 23.4297C110.607 23.6641 109.084 23.9277 107.502 24.2207C105.979 24.4551 104.426 24.8066 102.844 25.2754C101.262 25.7441 99.709 26.4473 98.1855 27.3848C97.7168 27.209 97.2773 27.1504 96.8672 27.209C96.5156 27.209 96.1348 27.2676 95.7246 27.3848C95.3145 27.502 94.8457 27.6191 94.3184 27.7363C93.8496 27.8535 93.2637 27.8535 92.5605 27.7363C92.0918 28.1465 91.5352 28.4395 90.8906 28.6152C90.3047 28.791 89.6895 28.9668 89.0449 29.1426C89.3379 29.7871 89.4551 30.4316 89.3965 31.0762C89.3965 31.7207 89.4844 32.2773 89.6602 32.7461C92.1211 32.9805 94.8457 32.9805 97.834 32.7461C100.822 32.4531 103.752 32.248 106.623 32.1309C106.682 32.4238 106.652 32.6289 106.535 32.7461C106.418 32.8633 106.359 33.0684 106.359 33.3613C106.887 33.7129 107.385 34.1523 107.854 34.6797C108.322 35.207 108.791 35.7344 109.26 36.2617C109.787 36.7305 110.314 37.1406 110.842 37.4922C111.369 37.7852 111.984 37.9023 112.688 37.8438C112.98 38.4297 113.186 39.0449 113.303 39.6895C113.42 40.334 113.332 41.0078 113.039 41.7109C111.867 42.4727 110.725 43.2637 109.611 44.084C108.498 44.8457 107.326 45.5488 106.096 46.1934C104.924 46.8379 103.635 47.3652 102.229 47.7754C100.822 48.1855 99.2988 48.3613 97.6582 48.3027C97.3652 48.3027 97.1016 48.3027 96.8672 48.3027C96.6914 48.3027 96.457 48.1855 96.1641 47.9512C95.5781 48.2441 94.7871 48.3613 93.791 48.3027C92.8535 48.1855 92.0625 48.2734 91.418 48.5664C90.5977 48.2734 89.6309 48.127 88.5176 48.127C87.4629 48.127 86.5254 47.9805 85.7051 47.6875C84.6504 49.2109 83.6543 50.8223 82.7168 52.5215C81.7793 54.1621 80.959 55.9199 80.2559 57.7949C82.6582 58.1465 84.6504 58.293 86.2324 58.2344C87.8145 58.1758 89.3086 58.0586 90.7148 57.8828C92.1211 57.707 93.5566 57.5312 95.0215 57.3555C96.5449 57.1797 98.3906 57.1211 100.559 57.1797C102.023 56.4766 103.693 56.0078 105.568 55.7734C107.502 55.4805 109.289 55.0703 110.93 54.543C111.516 54.7188 112.014 55.0703 112.424 55.5977C112.834 56.0664 113.215 56.5645 113.566 57.0918C113.977 57.5605 114.387 57.9707 114.797 58.3223C115.207 58.6738 115.734 58.791 116.379 58.6738C116.672 58.9668 116.848 59.3184 116.906 59.7285C117.023 60.1387 117.111 60.5195 117.17 60.8711C117.287 61.2227 117.434 61.5156 117.609 61.75C117.785 61.9258 118.107 61.9844 118.576 61.9258C117.463 64.2109 116.203 65.9688 114.797 67.1992C113.449 68.4297 111.896 69.3965 110.139 70.0996C108.439 70.7441 106.506 71.2422 104.338 71.5938C102.229 71.8867 99.8555 72.2676 97.2188 72.7363C96.5742 72.8535 96.0176 72.8535 95.5488 72.7363C95.1387 72.5605 94.6992 72.4727 94.2305 72.4727C92.5898 72.7656 90.627 73.0586 88.3418 73.3516C86.1152 73.6445 83.8594 73.7617 81.5742 73.7031C79.2891 73.6445 77.0918 73.3516 74.9824 72.8242C72.873 72.2969 71.1152 71.3594 69.709 70.0117ZM126.135 70.0117C125.666 69.543 125.314 68.9863 125.08 68.3418C124.904 67.6973 124.436 67.1699 123.674 66.7598C123.557 65.8809 123.381 64.8848 123.146 63.7715C122.971 62.5996 122.766 61.4277 122.531 60.2559C122.355 59.0254 122.209 57.8242 122.092 56.6523C122.033 55.4219 122.092 54.3086 122.268 53.3125C122.385 52.7852 122.561 52.2871 122.795 51.8184C123.088 51.3496 123.352 50.9102 123.586 50.5C123.879 50.0312 124.084 49.5625 124.201 49.0938C124.377 48.625 124.406 48.1562 124.289 47.6875C124.641 47.6289 124.846 47.4531 124.904 47.1602C125.021 46.8086 125.314 46.6914 125.783 46.8086C126.193 45.5195 126.633 44.3184 127.102 43.2051C127.57 42.0918 128.068 41.0078 128.596 39.9531C129.123 38.8984 129.65 37.8438 130.178 36.7891C130.764 35.6758 131.291 34.4453 131.76 33.0977C130.764 32.1602 130.031 31.1641 129.562 30.1094C129.152 28.9961 128.83 27.8828 128.596 26.7695C128.361 25.6562 128.186 24.543 128.068 23.4297C127.951 22.2578 127.717 21.0859 127.365 19.9141C128.068 18.8594 128.918 18.0098 129.914 17.3652C130.91 16.6621 131.994 16.1055 133.166 15.6953C134.396 15.2266 135.715 14.875 137.121 14.6406C138.527 14.3477 140.021 14.0254 141.604 13.6738C144.416 12.7949 146.936 12.1211 149.162 11.6523C151.389 11.125 153.557 10.7148 155.666 10.4219C157.775 10.0703 159.973 9.77734 162.258 9.54297C164.543 9.25 167.18 8.83984 170.168 8.3125C170.227 8.48828 170.314 8.57617 170.432 8.57617C170.607 8.57617 170.812 8.57617 171.047 8.57617C171.223 8.98633 171.545 9.19141 172.014 9.19141C172.014 9.01562 171.984 8.86914 171.926 8.75195C171.926 8.57617 171.926 8.42969 171.926 8.3125C172.043 8.3125 172.189 8.3418 172.365 8.40039C172.6 8.45898 172.775 8.51758 172.893 8.57617C173.068 8.63477 173.215 8.63477 173.332 8.57617C173.449 8.45898 173.479 8.25391 173.42 7.96094C174.123 9.19141 175.031 10.2168 176.145 11.0371C177.258 11.7988 178.488 12.4727 179.836 13.0586C179.895 13.5859 179.895 13.9668 179.836 14.2012C179.836 14.4355 179.807 14.6699 179.748 14.9043C179.689 15.0801 179.66 15.3145 179.66 15.6074C179.66 15.8418 179.719 16.1934 179.836 16.6621C178.898 18.2441 177.814 19.4746 176.584 20.3535C175.412 21.2324 174.152 21.9062 172.805 22.375C171.457 22.8438 170.021 23.1953 168.498 23.4297C167.033 23.6641 165.51 23.9277 163.928 24.2207C162.404 24.4551 160.852 24.8066 159.27 25.2754C157.688 25.7441 156.135 26.4473 154.611 27.3848C154.143 27.209 153.703 27.1504 153.293 27.209C152.941 27.209 152.561 27.2676 152.15 27.3848C151.74 27.502 151.271 27.6191 150.744 27.7363C150.275 27.8535 149.689 27.8535 148.986 27.7363C148.518 28.1465 147.961 28.4395 147.316 28.6152C146.73 28.791 146.115 28.9668 145.471 29.1426C145.764 29.7871 145.881 30.4316 145.822 31.0762C145.822 31.7207 145.91 32.2773 146.086 32.7461C148.547 32.9805 151.271 32.9805 154.26 32.7461C157.248 32.4531 160.178 32.248 163.049 32.1309C163.107 32.4238 163.078 32.6289 162.961 32.7461C162.844 32.8633 162.785 33.0684 162.785 33.3613C163.312 33.7129 163.811 34.1523 164.279 34.6797C164.748 35.207 165.217 35.7344 165.686 36.2617C166.213 36.7305 166.74 37.1406 167.268 37.4922C167.795 37.7852 168.41 37.9023 169.113 37.8438C169.406 38.4297 169.611 39.0449 169.729 39.6895C169.846 40.334 169.758 41.0078 169.465 41.7109C168.293 42.4727 167.15 43.2637 166.037 44.084C164.924 44.8457 163.752 45.5488 162.521 46.1934C161.35 46.8379 160.061 47.3652 158.654 47.7754C157.248 48.1855 155.725 48.3613 154.084 48.3027C153.791 48.3027 153.527 48.3027 153.293 48.3027C153.117 48.3027 152.883 48.1855 152.59 47.9512C152.004 48.2441 151.213 48.3613 150.217 48.3027C149.279 48.1855 148.488 48.2734 147.844 48.5664C147.023 48.2734 146.057 48.127 144.943 48.127C143.889 48.127 142.951 47.9805 142.131 47.6875C141.076 49.2109 140.08 50.8223 139.143 52.5215C138.205 54.1621 137.385 55.9199 136.682 57.7949C139.084 58.1465 141.076 58.293 142.658 58.2344C144.24 58.1758 145.734 58.0586 147.141 57.8828C148.547 57.707 149.982 57.5312 151.447 57.3555C152.971 57.1797 154.816 57.1211 156.984 57.1797C158.449 56.4766 160.119 56.0078 161.994 55.7734C163.928 55.4805 165.715 55.0703 167.355 54.543C167.941 54.7188 168.439 55.0703 168.85 55.5977C169.26 56.0664 169.641 56.5645 169.992 57.0918C170.402 57.5605 170.812 57.9707 171.223 58.3223C171.633 58.6738 172.16 58.791 172.805 58.6738C173.098 58.9668 173.273 59.3184 173.332 59.7285C173.449 60.1387 173.537 60.5195 173.596 60.8711C173.713 61.2227 173.859 61.5156 174.035 61.75C174.211 61.9258 174.533 61.9844 175.002 61.9258C173.889 64.2109 172.629 65.9688 171.223 67.1992C169.875 68.4297 168.322 69.3965 166.564 70.0996C164.865 70.7441 162.932 71.2422 160.764 71.5938C158.654 71.8867 156.281 72.2676 153.645 72.7363C153 72.8535 152.443 72.8535 151.975 72.7363C151.564 72.5605 151.125 72.4727 150.656 72.4727C149.016 72.7656 147.053 73.0586 144.768 73.3516C142.541 73.6445 140.285 73.7617 138 73.7031C135.715 73.6445 133.518 73.3516 131.408 72.8242C129.299 72.2969 127.541 71.3594 126.135 70.0117ZM181.506 55.1582C179.748 54.1621 178.4 52.7559 177.463 50.9395C176.525 49.123 175.998 47.3945 175.881 45.7539C176.057 44.3477 176.438 43.2637 177.023 42.502C177.551 41.6816 178.195 41.0371 178.957 40.5684C179.719 40.041 180.51 39.6602 181.33 39.4258C182.15 39.1328 182.941 38.8984 183.703 38.7227L185.021 39.1621C185.314 39.4551 185.607 39.7188 185.9 39.9531C186.252 40.1875 186.574 40.4219 186.867 40.6562C187.453 40.4219 187.805 40.0703 187.922 39.6016C188.098 39.1328 188.273 38.6641 188.449 38.1953C188.625 37.5508 188.83 36.9062 189.064 36.2617C189.299 35.6172 189.592 34.9727 189.943 34.3281C189.885 33.8008 189.914 33.332 190.031 32.9219C190.148 32.5117 190.266 32.1602 190.383 31.8672C190.031 31.5742 189.768 31.4277 189.592 31.4277C189.475 31.3691 189.24 31.2812 188.889 31.1641C188.713 31.1641 188.537 31.1641 188.361 31.1641C188.186 31.1055 187.98 31.0469 187.746 30.9883C186.867 30.3438 186.281 29.8164 185.988 29.4062C185.754 28.9375 185.49 28.4688 185.197 28C184.904 27.5312 184.641 27.1211 184.406 26.7695C184.172 26.418 183.908 26.0957 183.615 25.8027L182.561 25.0996L183.088 24.0449C183.205 23.9277 183.264 23.7812 183.264 23.6055C183.264 23.3711 183.146 23.0488 182.912 22.6387C182.736 21.877 182.707 21.3203 182.824 20.9688L183 19.9141C183.586 19.1523 183.908 18.7129 183.967 18.5957L184.846 17.7168C186.193 17.3652 187.57 16.9844 188.977 16.5742C190.383 16.1055 191.76 15.6367 193.107 15.168C194.455 14.6992 195.832 14.2305 197.238 13.7617C198.645 13.293 200.051 12.8828 201.457 12.5312C201.926 12.1211 202.424 11.8867 202.951 11.8281C203.537 11.7109 204.064 11.623 204.533 11.5645C204.943 11.5645 205.324 11.5352 205.676 11.4766C206.027 11.418 206.291 11.2715 206.467 11.0371C207.463 10.6855 208.43 10.3926 209.367 10.1582C211.125 9.68945 213.439 9.13281 216.311 8.48828C219.182 7.84375 222.404 7.375 225.979 7.08203L227.824 6.99414C228.176 7.05273 228.527 7.08203 228.879 7.08203C229.23 7.02344 229.582 6.99414 229.934 6.99414C232.98 6.99414 235.002 7.93164 235.998 9.80664C236.584 10.0996 237.111 10.4805 237.58 10.9492C238.049 11.3594 238.488 11.7695 238.898 12.1797C239.191 12.4727 239.455 12.7363 239.689 12.9707C239.924 13.1465 240.129 13.293 240.305 13.4102L241.008 14.1133C241.652 15.5195 241.77 16.8965 241.359 18.2441C241.008 18.9473 240.627 19.3574 240.217 19.4746C239.807 19.5918 239.396 19.709 238.986 19.8262L237.844 20.4414C237.082 20.3828 236.496 20.3535 236.086 20.3535C235.734 20.3535 235.324 20.3535 234.855 20.3535C233.098 20.3535 231.047 20.4707 228.703 20.7051C226.418 20.8809 224.074 21.1738 221.672 21.584C219.27 21.9355 216.926 22.4043 214.641 22.9902C212.355 23.5176 210.363 24.1035 208.664 24.748C208.195 25.0996 207.58 25.4219 206.818 25.7148C206.643 25.7734 206.379 25.9199 206.027 26.1543C206.086 26.623 206.086 27.0918 206.027 27.5605C205.969 27.9707 205.881 28.3809 205.764 28.791C205.705 29.084 205.646 29.4062 205.588 29.7578C205.588 30.0508 205.559 30.373 205.5 30.7246C204.27 32.1895 203.684 33.918 203.742 35.9102L203.303 36.7891C203.068 37.0234 202.863 37.375 202.688 37.8438C202.57 38.2539 202.57 38.6934 202.688 39.1621L203.039 40.2168C204.211 40.0996 205.354 39.9824 206.467 39.8652C207.639 39.6895 208.869 39.5137 210.158 39.3379C211.799 39.0449 213.439 38.8105 215.08 38.6348C216.779 38.4004 218.537 38.2832 220.354 38.2832H223.781L222.99 39.0742L223.957 39.1621L223.43 40.5684C223.84 40.7441 224.133 40.8906 224.309 41.0078C224.543 41.0664 224.748 41.1543 224.924 41.2715L225.539 42.1504C225.832 42.3262 226.096 42.6191 226.33 43.0293C226.564 43.3809 226.711 43.8789 226.77 44.5234L226.506 45.4023L222.375 50.6758L221.848 51.3789L220.969 51.1152C219.855 51.0566 218.801 51.1738 217.805 51.4668C217.336 51.584 216.838 51.7305 216.311 51.9062C215.783 52.0234 215.256 52.082 214.729 52.082C213.322 52.3164 212.15 52.5215 211.213 52.6973C210.275 52.8145 209.338 52.9316 208.4 53.0488C207.111 53.2832 205.852 53.5176 204.621 53.752C203.449 53.9277 202.336 54.2207 201.281 54.6309C200.637 54.6895 200.256 54.7188 200.139 54.7188C200.021 54.6602 199.904 54.6309 199.787 54.6309C199.201 54.6309 198.615 54.7188 198.029 54.8945C197.443 55.0703 196.887 55.2461 196.359 55.4219C196.008 55.7148 195.773 56.0371 195.656 56.3887C195.539 56.6816 195.422 57.0039 195.305 57.3555C195.188 57.7656 195.012 58.1758 194.777 58.5859C194.602 58.9375 194.367 59.3184 194.074 59.7285L194.162 61.3105C193.635 61.4277 193.371 61.5156 193.371 61.5742C193.371 61.5742 193.342 61.5742 193.283 61.5742C193.283 62.043 193.195 62.4824 193.02 62.8926C192.902 63.3027 192.785 63.6836 192.668 64.0352C192.551 64.2695 192.463 64.4746 192.404 64.6504C192.346 64.8262 192.316 65.002 192.316 65.1777C192.902 66.2324 193.049 67.4336 192.756 68.7812C192.521 69.8945 192.082 70.8906 191.438 71.7695C190.793 72.5898 190.031 73.2344 189.152 73.7031C188.215 73.8203 187.512 73.791 187.043 73.6152C186.633 73.4395 186.193 73.2637 185.725 73.0879C185.432 72.9707 185.139 72.8828 184.846 72.8242C184.553 72.707 184.26 72.6191 183.967 72.5605L182.912 71.6816C182.736 71.3301 182.531 71.0078 182.297 70.7148C182.062 70.3633 181.828 70.0117 181.594 69.6602C181.301 69.25 181.008 68.8398 180.715 68.4297C180.422 68.0195 180.158 67.5508 179.924 67.0234C179.514 64.9727 179.426 63.2734 179.66 61.9258C179.953 60.5195 180.334 59.1426 180.803 57.7949C180.92 57.3262 181.037 56.8867 181.154 56.4766C181.271 56.0664 181.389 55.627 181.506 55.1582ZM264.211 74.0547C263.391 73.5273 262.746 72.8535 262.277 72.0332C261.75 71.2129 261.34 70.334 261.047 69.3965C260.695 68.459 260.432 67.4922 260.256 66.4961C260.021 65.4414 259.787 64.4453 259.553 63.5078C259.553 62.6875 259.729 62.1016 260.08 61.75C260.432 61.3398 260.812 60.959 261.223 60.6074C262.629 60.5488 263.889 60.4316 265.002 60.2559C266.115 60.0801 267.199 59.9043 268.254 59.7285C269.309 59.5527 270.363 59.4062 271.418 59.2891C272.473 59.1133 273.615 59.0254 274.846 59.0254C275.725 57.209 276.545 55.4805 277.307 53.8398C278.068 52.1406 278.801 50.5293 279.504 49.0059C279.855 47.541 280.295 46.1934 280.822 44.9629C281.408 43.6738 281.965 42.4727 282.492 41.3594C283.02 40.1875 283.488 39.0449 283.898 37.9316C284.309 36.7598 284.572 35.5293 284.689 34.2402C285.393 32.1895 286.008 30.3145 286.535 28.6152C287.121 26.8574 287.561 24.7773 287.854 22.375C285.627 22.7266 283.84 23.0781 282.492 23.4297C281.145 23.7227 280.178 24.0156 279.592 24.3086C278.42 24.25 277.482 24.0156 276.779 23.6055C276.135 23.1953 275.607 22.6973 275.197 22.1113C274.787 21.5254 274.436 20.8516 274.143 20.0898C273.85 19.3281 273.498 18.5371 273.088 17.7168C273.322 17.1895 273.381 16.4277 273.264 15.4316C273.146 14.377 272.795 13.6152 272.209 13.1465C272.678 13.0293 273.029 12.6484 273.264 12.0039C273.498 11.3008 273.527 10.7734 273.352 10.4219C274.348 10.1289 275.402 9.95312 276.516 9.89453C277.629 9.77734 278.713 9.68945 279.768 9.63086C280.881 9.51367 281.936 9.39648 282.932 9.2793C283.928 9.10352 284.777 8.78125 285.48 8.3125C288.527 8.19531 291.691 8.07812 294.973 7.96094C298.312 7.84375 301.389 7.69727 304.201 7.52148C305.256 7.87305 306.457 8.04883 307.805 8.04883C309.211 8.04883 310.588 8.13672 311.936 8.3125C313.342 8.48828 314.572 8.86914 315.627 9.45508C316.74 10.041 317.502 11.0664 317.912 12.5312C318.791 12.6484 319.436 12.8828 319.846 13.2344C320.314 13.5859 320.607 14.0254 320.725 14.5527C320.842 15.0215 320.871 15.5781 320.812 16.2227C320.812 16.8086 320.812 17.3945 320.812 17.9805C319.875 18.6836 318.674 19.2695 317.209 19.7383C315.803 20.1484 314.25 20.5 312.551 20.793C310.852 21.0273 309.064 21.2031 307.189 21.3203C305.373 21.3789 303.586 21.4375 301.828 21.4961C301.535 23.4297 301.008 25.7148 300.246 28.3516C299.543 30.9297 298.811 33.4785 298.049 35.998C297.287 38.459 296.613 40.6855 296.027 42.6777C295.5 44.6113 295.266 45.8711 295.324 46.457C294.738 47.8047 294.24 48.9473 293.83 49.8848C293.479 50.8223 293.127 51.7012 292.775 52.5215C292.482 53.3418 292.16 54.1621 291.809 54.9824C291.516 55.7441 291.135 56.623 290.666 57.6191H296.643C296.76 58.2637 297.023 58.7031 297.434 58.9375C297.844 59.1719 298.283 59.377 298.752 59.5527C299.221 59.7285 299.631 59.9629 299.982 60.2559C300.393 60.4902 300.598 60.9004 300.598 61.4863C301.711 61.7793 302.414 62.2188 302.707 62.8047C303 63.3906 303.059 64.0352 302.883 64.7383C302.766 65.3828 302.473 66.0566 302.004 66.7598C301.594 67.4629 301.184 68.0781 300.773 68.6055C300.246 68.4883 299.748 68.6348 299.279 69.0449C298.811 69.3965 298.371 69.8066 297.961 70.2754C296.262 70.041 294.592 70.0117 292.951 70.1875C291.311 70.3633 289.787 70.5098 288.381 70.627C288.088 70.6855 287.971 70.8613 288.029 71.1543C288.088 71.3887 288.029 71.5645 287.854 71.6816C286.037 71.0957 284.162 70.8613 282.229 70.9785C280.354 71.0957 278.42 71.3887 276.428 71.8574C274.494 72.2676 272.502 72.707 270.451 73.1758C268.4 73.7031 266.32 73.9961 264.211 74.0547ZM311.057 23.4297C310.998 22.9609 310.881 22.5508 310.705 22.1992C310.588 21.7891 310.441 21.3496 310.266 20.8809C309.973 20.1777 309.709 19.416 309.475 18.5957C309.24 17.7754 309.123 16.8086 309.123 15.6953C309.24 15.1094 309.387 14.6992 309.562 14.4648C309.738 14.1719 309.914 13.9375 310.09 13.7617L310.441 12.1797H311.76C312.229 12.2383 312.697 12.2676 313.166 12.2676C313.693 12.2676 314.191 12.2676 314.66 12.2676C316.887 12.2676 319.172 12.1797 321.516 12.0039C323.859 11.8281 326.262 11.623 328.723 11.3887C331.418 11.0371 334.318 10.7734 337.424 10.5977C337.717 9.95312 337.893 9.54297 337.951 9.36719C338.068 9.19141 338.186 8.98633 338.303 8.75195L339.27 8.22461C340.617 8.16602 341.555 8.3418 342.082 8.75195C342.609 9.10352 343.02 9.45508 343.312 9.80664C344.836 9.68945 346.389 9.54297 347.971 9.36719C349.553 9.13281 351.193 8.89844 352.893 8.66406C355.236 8.37109 357.609 8.07812 360.012 7.78516C362.414 7.49219 364.758 7.3457 367.043 7.3457C368.039 7.3457 368.977 7.375 369.855 7.43359C370.734 7.49219 371.584 7.58008 372.404 7.69727L373.459 8.48828C373.693 8.89844 373.986 9.2793 374.338 9.63086C374.689 9.98242 375.1 10.334 375.568 10.6855C376.447 11.3887 377.297 12.2676 378.117 13.3223C378.996 14.377 379.318 15.9297 379.084 17.9805L378.645 18.8594C378.41 19.0938 378.117 19.3281 377.766 19.5625L376.887 20.7051H375.92C375.334 20.7051 374.895 20.7637 374.602 20.8809C374.309 20.9395 373.957 21.0566 373.547 21.2324C373.312 21.3496 373.049 21.4668 372.756 21.584C372.463 21.6426 372.141 21.7305 371.789 21.8477C371.145 21.7891 370.646 21.7598 370.295 21.7598C369.943 21.7598 369.533 21.7598 369.064 21.7598C367.307 21.7598 365.402 21.877 363.352 22.1113C361.301 22.3457 359.309 22.6094 357.375 22.9023C355.969 23.0781 354.621 23.2539 353.332 23.4297C352.043 23.5469 350.871 23.6641 349.816 23.7812C349.23 25.3047 348.703 26.6523 348.234 27.8242C347.766 28.9961 347.268 30.168 346.74 31.3398C346.213 32.5117 345.715 33.7129 345.246 34.9434C344.777 36.1152 344.338 37.4336 343.928 38.8984C343.225 39.9531 342.639 40.9785 342.17 41.9746C341.701 42.9121 341.32 43.9961 341.027 45.2266C340.148 46.2227 339.504 47.3066 339.094 48.4785C338.742 49.6504 338.42 50.6465 338.127 51.4668L337.775 52.7852C337.365 53.1953 337.102 53.5176 336.984 53.752C336.926 53.9863 336.779 54.25 336.545 54.543C336.369 55.3047 336.135 56.0371 335.842 56.7402C335.725 57.0332 335.607 57.3555 335.49 57.707C335.373 58 335.344 58.2344 335.402 58.4102C335.285 59.0547 335.109 59.5527 334.875 59.9043C334.875 60.2559 334.846 60.6074 334.787 60.959C334.729 61.3105 334.67 61.6621 334.611 62.0137C334.494 62.4238 334.406 62.8047 334.348 63.1562C334.289 63.4492 334.318 63.7422 334.436 64.0352C334.611 64.2695 334.787 64.5039 334.963 64.7383C335.139 64.9727 335.285 65.2656 335.402 65.6172C335.52 65.7344 335.666 65.8223 335.842 65.8809C336.018 65.9395 336.164 66.0273 336.281 66.1445C336.75 66.5547 337.189 66.7891 337.6 66.8477L338.479 67.9023C338.83 70.0117 338.508 71.6523 337.512 72.8242C336.457 74.1719 334.699 74.8457 332.238 74.8457L331.008 74.7578C330.598 74.3477 330.363 74.084 330.305 73.9668C329.777 73.7324 329.338 73.5273 328.986 73.3516C328.635 73.2344 328.312 72.9707 328.02 72.5605C327.902 72.4434 327.756 72.3848 327.58 72.3848C327.404 72.3262 327.258 72.2383 327.141 72.1211C326.555 71.9453 326.086 71.7402 325.734 71.5059L324.768 70.9785C324.826 70.3926 324.855 69.9824 324.855 69.748C324.387 69.1035 324.006 68.4004 323.713 67.6387C323.479 66.877 323.273 66.0859 323.098 65.2656C322.922 64.6211 322.746 64.0352 322.57 63.5078C322.453 62.9805 322.248 62.5117 321.955 62.1016C321.838 58 322.219 54.5723 323.098 51.8184C323.977 49.0059 324.943 46.2812 325.998 43.6445C326.584 42.2383 327.141 40.8027 327.668 39.3379C328.195 37.873 328.664 36.3789 329.074 34.8555L330.041 33.8887C330.451 33.5371 330.715 33.332 330.832 33.2734C330.832 32.5117 330.979 31.7793 331.271 31.0762C331.564 30.3145 331.887 29.5527 332.238 28.791C332.473 28.3223 332.678 27.8535 332.854 27.3848C333.088 26.916 333.234 26.5059 333.293 26.1543C332.883 26.1543 332.502 26.1836 332.15 26.2422C331.857 26.2422 331.535 26.2715 331.184 26.3301C330.422 26.5059 329.689 26.5938 328.986 26.5938C328.459 26.5938 328.078 26.5645 327.844 26.5059C327.375 26.7402 326.936 26.8867 326.525 26.9453C326.115 26.9453 325.705 26.9453 325.295 26.9453H324.24H323.186C322.482 26.9453 321.926 27.0332 321.516 27.209C320.695 27.209 320.168 27.209 319.934 27.209C319.699 27.209 319.436 27.209 319.143 27.209H318.088H317.033C316.564 27.209 316.037 27.1797 315.451 27.1211C314.865 27.0039 314.25 26.7695 313.605 26.418L312.99 25.7148C312.639 25.0703 312.316 24.7188 312.023 24.6602L311.057 24.3965V23.4297Z" fill="white"/>
<path d="M407.378 27.1862L390.99 73H353L373.112 27.1862H353L403.456 1L426 27.1862H407.378Z" fill="#D21717"/>
</svg>
